# xmcd
# 
# Track frame offsets:
#   150
#   17431
#   48389
#   67276
# 
# Disc length: 1008 seconds
# 
# Revision: 1
# Processed by: cddbd v1.5.1PL0 Copyright (c) Steve Scherf et al.
# Submitted via: VOLTOCDX V1.0.24 
# 
DISCID=3003ee04
DTITLE=My Artist - My Title
DYEAR=2005
DGENRE=Description of the extended genre
TTITLE0=Mr. Man
TTITLE1=Piano and I
TTITLE2=
TTITLE3=
EXTD=Extended CD description
EXTT0=
EXTT1=
EXTT2=
EXTT3=
PLAYORDER=
